<svg xmlns="http://www.w3.org/2000/svg" viewBox="0 0 465.1 106.04"><defs><style>.cls-1{fill:#ff0c0c;}.cls-2{font-size:48px;fill:#fff;font-family:MyriadHebrew-Regular, Myriad Hebrew;}.cls-3{letter-spacing:-0.03em;}</style></defs><g id="katman_2" data-name="katman 2"><g id="katman_1-2" data-name="katman 1"><rect width="465.1" height="106.04"/><path class="cls-1" d="M152.76,42.81c-11.31-.31-14-3.32-14.54-5.09V37.5s-.05-.26-.07-.39a2,2,0,0,1,0-.35,3.63,3.63,0,0,0,1-3.25,3.82,3.82,0,0,0-3.59-3.14,4.12,4.12,0,0,0-2.91,1.06l-.32.36v-.24a1.4,1.4,0,0,0,0-.29A4.27,4.27,0,0,0,128.11,27a4.52,4.52,0,0,0-4.27,4.29,11.58,11.58,0,0,0-3.28,1.12,44.51,44.51,0,0,0-12-4A68.63,68.63,0,0,0,95.35,27c-6.93,0-14.1,1.66-21.92,5.07a26.6,26.6,0,0,0-5.51,3.08h-.07l-2.4-2.6h0a3.51,3.51,0,0,0-4.88,0,3.44,3.44,0,0,0,0,4.85l3,3.28a22,22,0,0,0-1.78,2.69.14.14,0,0,1-.06.11,20.52,20.52,0,0,0-1.57,7.88,22.64,22.64,0,0,0,3.27,11.5c2.33,3.88,4.67,6.26,7.31,7.44l.06,6.34a1.81,1.81,0,0,0,1.26,1.68,27.58,27.58,0,0,0,7.12.73,26.87,26.87,0,0,0,7.32-.74,1.78,1.78,0,0,0,1.26-1.7V72a.47.47,0,0,1,.15-.35.49.49,0,0,1,.37-.09,40.3,40.3,0,0,0,6.28.83,87.15,87.15,0,0,0,17.71-2,.73.73,0,0,1,.64.13.68.68,0,0,1,.28.58v5.49a1.81,1.81,0,0,0,1.24,1.7,27.16,27.16,0,0,0,7.24.73,27,27,0,0,0,7.23-.73,1.77,1.77,0,0,0,1.25-1.7v-7a.77.77,0,0,1,.45-.69,5.06,5.06,0,0,0,2.29-2,69.12,69.12,0,0,1,8.68,2C166,76.42,170.39,43.3,152.76,42.81Z"/><text class="cls-2" transform="translate(210.77 69.69)">Git<tspan class="cls-3" x="58.13" y="0">F</tspan><tspan x="80.21" y="0">inder</tspan></text></g></g></svg>