<svg xmlns="http://www.w3.org/2000/svg" viewBox="0 0 465.1 106.04"><defs><style>.cls-1{fill:#ff0c0c;}.cls-2{fill:#fff;}</style></defs><g id="katman_2" data-name="katman 2"><g id="katman_1-2" data-name="katman 1"><rect width="465.1" height="106.04"/><path class="cls-1" d="M191.58,42.81c-11.31-.31-14-3.32-14.54-5.09v-.1s0-.09,0-.12-.05-.26-.07-.39a2.16,2.16,0,0,1,0-.35A3.66,3.66,0,0,0,178,33.51a3.82,3.82,0,0,0-3.59-3.14,4.05,4.05,0,0,0-2.91,1.06,3.59,3.59,0,0,0-.32.36l0-.24a2.83,2.83,0,0,0,0-.29A4.27,4.27,0,0,0,166.93,27a4.5,4.5,0,0,0-4.27,4.29,11.38,11.38,0,0,0-3.28,1.12,44.49,44.49,0,0,0-11.95-4A68,68,0,0,0,134.17,27c-6.93,0-14.1,1.66-21.92,5.07a26.15,26.15,0,0,0-5.51,3.08l-.07,0-2.4-2.6,0,0a3.51,3.51,0,0,0-4.88-.05,3.39,3.39,0,0,0-1,2.42,3.46,3.46,0,0,0,1,2.43l3,3.28a21.65,21.65,0,0,0-1.78,2.69s0,.07-.06.11a20.23,20.23,0,0,0-1.57,7.88,22.63,22.63,0,0,0,3.27,11.5c2.33,3.88,4.67,6.26,7.31,7.44l.06,6.34a1.79,1.79,0,0,0,1.26,1.68A27.75,27.75,0,0,0,118,79a27.4,27.4,0,0,0,7.32-.74,1.8,1.8,0,0,0,1.26-1.7V72a.45.45,0,0,1,.15-.35.49.49,0,0,1,.37-.09,40.31,40.31,0,0,0,6.28.83,87.5,87.5,0,0,0,17.71-2,.73.73,0,0,1,.64.13.7.7,0,0,1,.28.58v5.49a1.81,1.81,0,0,0,1.24,1.7,27.47,27.47,0,0,0,7.24.73,27.31,27.31,0,0,0,7.23-.73,1.79,1.79,0,0,0,1.25-1.7v-7a.76.76,0,0,1,.45-.69,5.1,5.1,0,0,0,2.29-2,68.18,68.18,0,0,1,8.68,2C204.8,76.42,209.21,43.3,191.58,42.81Z"/><path class="cls-2" d="M272.66,29.87l-1,.95a7.5,7.5,0,0,0-2.37-1.61,6.33,6.33,0,0,0-2.51-.55,6,6,0,0,0-2.9.75,5.39,5.39,0,0,0-2.13,2,5.25,5.25,0,0,0-.76,2.7,5.38,5.38,0,0,0,.79,2.78A5.56,5.56,0,0,0,263.94,39a6.23,6.23,0,0,0,3,.75,5.18,5.18,0,0,0,3.38-1.12A4.43,4.43,0,0,0,272,35.68h-4.12V34.43h5.57a6.45,6.45,0,0,1-1.78,4.76A6.33,6.33,0,0,1,266.93,41a7.08,7.08,0,0,1-5.68-2.44,6.49,6.49,0,0,1-1.61-4.35,6.75,6.75,0,0,1,.92-3.42,6.55,6.55,0,0,1,2.54-2.47,7.29,7.29,0,0,1,3.63-.89,8,8,0,0,1,3.1.59A9.26,9.26,0,0,1,272.66,29.87Z"/><path class="cls-2" d="M276.11,27.13a1,1,0,0,1,.72.3,1,1,0,0,1,0,1.43,1,1,0,0,1-.72.3,1,1,0,0,1-.71-.3,1,1,0,0,1,0-1.43A1,1,0,0,1,276.11,27.13Zm-.61,3.94h1.23v9.56H275.5Z"/><path class="cls-2" d="M280.36,27.52h1.23v3.55h2v1.06h-2v8.5h-1.23v-8.5h-1.68V31.07h1.68Z"/><path class="cls-2" d="M285.38,27.38h1.24v5.4a5,5,0,0,1,1.64-1.47,3.94,3.94,0,0,1,1.94-.49,3.31,3.31,0,0,1,1.9.55,3.18,3.18,0,0,1,1.23,1.46,7.81,7.81,0,0,1,.4,2.88v4.92h-1.24V36.07a11.6,11.6,0,0,0-.13-2.21,2.51,2.51,0,0,0-.83-1.43A2.44,2.44,0,0,0,290,32a3,3,0,0,0-2,.74,3.46,3.46,0,0,0-1.17,1.83,12.58,12.58,0,0,0-.17,2.6v3.51h-1.24Z"/><path class="cls-2" d="M296.2,31.07h1.23v4.46a9.32,9.32,0,0,0,.18,2.25,2.5,2.5,0,0,0,1,1.39,3,3,0,0,0,1.77.51,3,3,0,0,0,1.75-.5,2.5,2.5,0,0,0,1-1.3,9.47,9.47,0,0,0,.18-2.35V31.07h1.26v4.69a7.39,7.39,0,0,1-.46,3,3.53,3.53,0,0,1-1.39,1.57,4.36,4.36,0,0,1-2.32.57,4.43,4.43,0,0,1-2.34-.57,3.5,3.5,0,0,1-1.39-1.58,7.7,7.7,0,0,1-.47-3.06Z"/><path class="cls-2" d="M307.38,40.63V27.38h1.23v5.33a5.32,5.32,0,0,1,1.73-1.42,4.76,4.76,0,0,1,2.1-.47,4.69,4.69,0,0,1,3.47,1.47,5,5,0,0,1,1.43,3.58,4.85,4.85,0,0,1-1.45,3.54,4.71,4.71,0,0,1-3.48,1.47,4.4,4.4,0,0,1-2.12-.51,4.93,4.93,0,0,1-1.68-1.5v1.76Zm4.93-.94a3.67,3.67,0,0,0,1.89-.51,3.63,3.63,0,0,0,1.38-1.42,3.93,3.93,0,0,0,0-3.87,3.78,3.78,0,0,0-1.39-1.44,3.68,3.68,0,0,0-1.87-.51,3.82,3.82,0,0,0-1.91.51,3.6,3.6,0,0,0-1.4,1.39,4,4,0,0,0-.48,2,3.79,3.79,0,0,0,1.09,2.77A3.59,3.59,0,0,0,312.31,39.69Z"/><path class="cls-2" d="M260.18,49.3h2.57a14.78,14.78,0,0,1,3,.19,3.39,3.39,0,0,1,1.81,1.12,3.65,3.65,0,0,1,0,4.27A3.43,3.43,0,0,1,265.68,56a16.81,16.81,0,0,1-3.29.21h-.92v6h-1.29Zm1.29,1.27V55l2.19,0a5.75,5.75,0,0,0,1.94-.24,2,2,0,0,0,1-.78,2.22,2.22,0,0,0,.35-1.21,2.18,2.18,0,0,0-.35-1.19,2,2,0,0,0-.93-.77,5.67,5.67,0,0,0-1.89-.22Z"/><path class="cls-2" d="M270.17,52.67h1.26v1.39a4.37,4.37,0,0,1,1.18-1.23,2.37,2.37,0,0,1,1.3-.41,2.2,2.2,0,0,1,1.09.33l-.64,1a1.66,1.66,0,0,0-.65-.16,1.74,1.74,0,0,0-1.18.5,3.22,3.22,0,0,0-.87,1.57,14.5,14.5,0,0,0-.23,3.3v3.24h-1.26Z"/><path class="cls-2" d="M280.58,52.42a4.73,4.73,0,0,1,3.66,1.6,5.13,5.13,0,0,1-.08,7A5.07,5.07,0,0,1,277,61a5,5,0,0,1-1.4-3.51A4.92,4.92,0,0,1,276.91,54,4.73,4.73,0,0,1,280.58,52.42Zm0,1.2a3.52,3.52,0,0,0-2.63,1.14,3.77,3.77,0,0,0-1.11,2.74,3.82,3.82,0,0,0,.51,1.93,3.54,3.54,0,0,0,1.35,1.39,3.85,3.85,0,0,0,3.76,0,3.63,3.63,0,0,0,1.36-1.39,3.91,3.91,0,0,0,.5-1.93,3.8,3.8,0,0,0-1.1-2.74A3.56,3.56,0,0,0,280.57,53.62Z"/><path class="cls-2" d="M291.77,49v1.21a3.07,3.07,0,0,0-1.16-.29A1.14,1.14,0,0,0,290,50a.64.64,0,0,0-.3.34,4.65,4.65,0,0,0-.06,1v1.3h2v1.06h-2v8.5h-1.23v-8.5h-1.26V52.67h1.26v-1.5a4,4,0,0,1,.19-1.47,1.49,1.49,0,0,1,.64-.7,2.07,2.07,0,0,1,1.09-.27A5.25,5.25,0,0,1,291.77,49Z"/><path class="cls-2" d="M293.91,48.73a1,1,0,0,1,0,2,.94.94,0,0,1-.7-.3,1,1,0,0,1,0-1.43A.94.94,0,0,1,293.91,48.73Zm-.61,3.94h1.23v9.56H293.3Z"/><path class="cls-2" d="M296.91,49h1.23V62.23h-1.23Z"/><path class="cls-2" d="M308.75,59.06l1,.54a5.56,5.56,0,0,1-1.18,1.62,4.5,4.5,0,0,1-1.5.93,5.13,5.13,0,0,1-1.89.32,4.58,4.58,0,0,1-3.66-1.53,5.17,5.17,0,0,1-1.32-3.47,5.08,5.08,0,0,1,1.12-3.24,4.54,4.54,0,0,1,3.79-1.81,4.72,4.72,0,0,1,3.9,1.85,5.15,5.15,0,0,1,1.06,3.27h-8.61a3.91,3.91,0,0,0,1.07,2.74,3.39,3.39,0,0,0,2.54,1.06,4,4,0,0,0,1.42-.25,3.77,3.77,0,0,0,1.18-.68A6,6,0,0,0,308.75,59.06Zm0-2.58a4.17,4.17,0,0,0-.72-1.57,3.46,3.46,0,0,0-1.25-.95,3.79,3.79,0,0,0-1.62-.36,3.51,3.51,0,0,0-2.42.9,4,4,0,0,0-1.12,2Z"/><path class="cls-2" d="M260.2,70.9h7.4v1.27h-6.11v4h6.06v1.26h-6.06v5.08h6.06v1.27H260.2Z"/><path class="cls-2" d="M268.54,74.27H270l2.54,3.49,2.52-3.49h1.48l-3.25,4.51,3.66,5h-1.5l-2.91-4-2.89,4H268.2l3.62-5Z"/><path class="cls-2" d="M278.29,74.27h1.23V76a5.15,5.15,0,0,1,1.68-1.5,4.51,4.51,0,0,1,2.12-.5,4.71,4.71,0,0,1,3.48,1.47A4.82,4.82,0,0,1,288.25,79a4.92,4.92,0,0,1-1.44,3.58,4.8,4.8,0,0,1-5.56,1,5.44,5.44,0,0,1-1.73-1.41v5.14h-1.23Zm4.92.94a3.6,3.6,0,0,0-2.68,1.11,3.82,3.82,0,0,0-1.1,2.78,4,4,0,0,0,.49,2,3.57,3.57,0,0,0,1.4,1.38,3.82,3.82,0,0,0,1.91.51,3.71,3.71,0,0,0,3.25-2,3.83,3.83,0,0,0,.52-1.93,3.9,3.9,0,0,0-.51-1.93,3.69,3.69,0,0,0-1.38-1.42A3.77,3.77,0,0,0,283.21,75.21Z"/><path class="cls-2" d="M290.37,70.58h1.23V83.83h-1.23Z"/><path class="cls-2" d="M298.68,74a4.73,4.73,0,0,1,3.67,1.6,5.13,5.13,0,0,1-.08,7,5,5,0,0,1-7.18,0,5.12,5.12,0,0,1-.08-7A4.74,4.74,0,0,1,298.68,74Zm0,1.2A3.56,3.56,0,0,0,296,76.36a3.8,3.8,0,0,0-1.1,2.74,3.91,3.91,0,0,0,.5,1.93,3.63,3.63,0,0,0,1.36,1.39,3.85,3.85,0,0,0,3.76,0A3.54,3.54,0,0,0,301.91,81a3.82,3.82,0,0,0,.51-1.93,3.77,3.77,0,0,0-1.11-2.74A3.54,3.54,0,0,0,298.68,75.22Z"/><path class="cls-2" d="M305.48,74.27h1.25v1.39a4.39,4.39,0,0,1,1.19-1.23,2.37,2.37,0,0,1,1.3-.41,2.23,2.23,0,0,1,1.09.33l-.64,1a1.74,1.74,0,0,0-.65-.16,1.76,1.76,0,0,0-1.19.5,3.22,3.22,0,0,0-.87,1.57,15.14,15.14,0,0,0-.23,3.3v3.24h-1.25Z"/><path class="cls-2" d="M319.41,80.66l1,.54a5.73,5.73,0,0,1-1.17,1.62,4.64,4.64,0,0,1-1.51.93,5.13,5.13,0,0,1-1.89.33,4.58,4.58,0,0,1-3.66-1.54,5.17,5.17,0,0,1-1.32-3.47A5.08,5.08,0,0,1,312,75.83,4.56,4.56,0,0,1,315.8,74a4.72,4.72,0,0,1,3.9,1.85,5.15,5.15,0,0,1,1.06,3.27h-8.6a3.86,3.86,0,0,0,1.06,2.74,3.39,3.39,0,0,0,2.54,1.06,4,4,0,0,0,1.42-.25,3.66,3.66,0,0,0,1.18-.68A6,6,0,0,0,319.41,80.66Zm0-2.58a4.17,4.17,0,0,0-.72-1.57,3.38,3.38,0,0,0-1.25-1,3.76,3.76,0,0,0-1.62-.36,3.51,3.51,0,0,0-2.42.9,4,4,0,0,0-1.12,2Z"/><path class="cls-2" d="M322.59,74.27h1.26v1.39A4.37,4.37,0,0,1,325,74.43a2.37,2.37,0,0,1,1.3-.41,2.2,2.2,0,0,1,1.09.33l-.64,1a1.7,1.7,0,0,0-.65-.16,1.76,1.76,0,0,0-1.19.5,3.22,3.22,0,0,0-.87,1.57,15.35,15.35,0,0,0-.22,3.3v3.24h-1.26Z"/></g></g></svg>