<svg width="15" height="15" viewBox="0 0 24 20" fill="none" xmlns="http://www.w3.org/2000/svg">
<path d="M6.469 4.91624C8.554 2.83162 12.019 2.83162 14.104 4.91624C15.979 6.79124 16.2565 9.77999 14.7153 11.9362L14.674 11.9962C14.2878 12.5325 13.5378 12.66 13.0015 12.2737C12.4615 11.8875 12.334 11.1375 12.7203 10.6012L12.7615 10.5412C13.6203 9.3375 13.4853 7.69124 12.439 6.64499C11.2615 5.46749 9.34525 5.46749 8.164 6.64499L3.95649 10.8562C2.77487 12.0037 2.77487 13.95 3.95649 15.1312C4.99899 16.1775 6.649 16.3125 7.849 15.4537L7.909 15.3787C8.449 15.0262 9.199 15.15 9.5815 15.69C9.96775 16.23 9.844 16.98 9.304 17.3663L9.244 17.4075C7.054 18.9488 4.13274 18.7013 2.25811 16.83C0.140524 14.7112 0.140524 11.2762 2.25811 9.16124L6.469 4.91624ZM17.5315 14.25C15.4128 16.3688 11.9815 16.3688 9.86275 14.25C7.98775 12.375 7.744 9.41999 9.28525 7.26374L9.3265 7.20374C9.679 6.66749 10.429 6.53999 10.999 6.92624C11.539 7.27874 11.6665 8.02874 11.2803 8.59874L11.239 8.65874C10.3803 9.82874 10.5153 11.5087 11.5615 12.555C12.739 13.7325 14.6553 13.7325 15.8365 12.555L20.044 8.34374C21.2253 7.16249 21.2253 5.21624 20.044 4.06874C19.0015 3.02362 17.3515 2.88712 16.1515 3.74624L16.0915 3.78749C15.5515 4.17374 14.8015 4.01624 14.419 3.50924C14.0328 2.96999 14.1565 2.22036 14.6965 1.83524L14.7565 1.79324C16.9128 0.252401 19.8678 0.496863 21.7428 2.37149C23.8615 4.48874 23.8615 7.92374 21.7428 10.0387L17.5315 14.25Z" fill="#E5E5E5"/>
</svg>
