<svg width="104" height="52" viewBox="0 0 104 52" fill="none" xmlns="http://www.w3.org/2000/svg">
<path d="M93.2872 15.7898C81.9765 15.4769 79.3227 12.4733 78.754 10.7004L78.7434 10.5961C78.7328 10.5648 78.7118 10.5126 78.7014 10.4813C78.6802 10.3666 78.6485 10.2206 78.6275 10.085C78.6171 9.95989 78.6065 9.83474 78.6171 9.74087C79.4911 8.87526 79.9019 7.68633 79.6912 6.48696C79.3859 4.74529 77.8798 3.42077 76.1001 3.34778C75.0364 3.29563 73.9411 3.70236 73.1933 4.41155C73.0775 4.52627 72.9616 4.641 72.867 4.76615L72.909 4.52627C72.9196 4.43242 72.93 4.33855 72.93 4.24468C72.93 1.90854 71.0133 0 68.6437 0C66.4323 0 64.4839 1.98155 64.3681 4.2864C63.1781 4.47412 62.2091 4.88087 61.0927 5.41276C58.0176 3.7545 53.8893 2.36744 49.1396 1.39751C44.7587 0.500602 40.051 0.0104292 35.8806 0.0104292C28.9511 0.0104292 21.7791 1.66867 13.9648 5.07903C12.2167 5.84035 10.2157 6.79983 8.4464 8.15564C8.42535 8.16606 8.40428 8.1765 8.38323 8.18692L5.98206 5.59006C5.96101 5.5692 5.95046 5.55876 5.92941 5.53792C5.28699 4.90173 4.43396 4.53671 3.52826 4.52627C2.6015 4.50543 1.71685 4.84958 1.05338 5.48577C0.3899 6.12194 0.0107709 6.98757 0.000239534 7.90533C-0.0102919 8.81267 0.326712 9.6783 0.958595 10.3353L3.90738 13.6205C3.15967 14.6009 2.42245 15.7377 2.12757 16.3113C2.10652 16.3426 2.096 16.3843 2.07492 16.4156C1.02178 18.9186 0.495215 21.5675 0.495215 24.3C0.495215 28.2006 1.65367 32.2785 3.77048 35.8035C6.09791 39.6831 8.43588 42.0609 11.0793 43.2395L11.1424 49.5803C11.153 50.3522 11.6585 51.0301 12.3957 51.2595C13.512 51.6142 16.0185 52 19.715 52C23.401 52 25.918 51.6246 27.0344 51.2595C27.7819 51.0197 28.2876 50.3314 28.2876 49.5595L28.277 44.929C28.277 44.7934 28.3296 44.6682 28.4351 44.5848C28.5403 44.5014 28.6668 44.4702 28.8036 44.491C30.3832 44.8038 33.311 45.3149 35.0802 45.3149C40.009 45.3149 48.3078 44.5326 52.7941 43.3647C53.0152 43.3021 53.247 43.3543 53.426 43.4897C53.6155 43.6357 53.7104 43.8339 53.7104 44.0737V49.5595C53.7104 50.3314 54.2158 51.0197 54.953 51.2595C56.0589 51.6142 58.5443 51.9896 62.188 51.9896C65.8424 51.9896 68.3174 51.6142 69.4231 51.2595C70.1709 51.0197 70.6659 50.3314 70.6659 49.5595V42.5512C70.6659 42.2592 70.8448 41.9879 71.1187 41.8629C72.077 41.4249 72.8774 40.7052 73.4144 39.8187C76.0157 40.2671 79.0487 40.9138 82.0924 41.8629C106.515 49.4031 110.917 16.28 93.2872 15.7898Z" fill="#FF0C0C"/>
</svg>
